<svg width="478" height="80" viewBox="0 0 478 80" fill="none" xmlns="http://www.w3.org/2000/svg">
<rect width="478" height="80" fill="white"/>
<path fill-rule="evenodd" clip-rule="evenodd" d="M9 41.5H0V38.5H9V41.5Z" fill="black"/>
<path fill-rule="evenodd" clip-rule="evenodd" d="M38 41.5H9V38.5H38V41.5Z" fill="black"/>
<path fill-rule="evenodd" clip-rule="evenodd" d="M23.26 12.5L19.0161 8.25609L21.1374 6.13477L28.9998 13.9971L28.997 13.9999L29 14.0028L21.1376 21.8652L19.0163 19.7439L23.2602 15.5H12L12 38.5H9V15.5V12.5H23.26Z" fill="black"/>
<path d="M12.784 51.9375C12.864 52.1935 12.904 52.5322 12.904 52.9535C12.904 53.3802 12.8693 53.7109 12.8 53.9455C12.704 54.2869 12.528 54.5562 12.272 54.7535C12.0213 54.9455 11.704 55.0415 11.32 55.0415C11.112 55.0415 10.92 55.0015 10.744 54.9215C10.568 54.8362 10.4213 54.7162 10.304 54.5615C10.2933 54.5509 10.2827 54.5482 10.272 54.5535C10.2667 54.5535 10.264 54.5589 10.264 54.5695V56.4495C10.264 56.5029 10.2373 56.5295 10.184 56.5295H9.776C9.72267 56.5295 9.696 56.5029 9.696 56.4495V51.0095C9.696 50.9562 9.72267 50.9295 9.776 50.9295H10.184C10.2373 50.9295 10.264 50.9562 10.264 51.0095V51.3455C10.264 51.3562 10.2667 51.3642 10.272 51.3695C10.2827 51.3695 10.2933 51.3642 10.304 51.3535C10.4213 51.1989 10.5653 51.0789 10.736 50.9935C10.912 50.9082 11.1067 50.8655 11.32 50.8655C11.6933 50.8655 12.0053 50.9615 12.256 51.1535C12.512 51.3455 12.688 51.6069 12.784 51.9375ZM12.152 53.9615C12.2107 53.8442 12.2533 53.7135 12.28 53.5695C12.312 53.4202 12.328 53.2149 12.328 52.9535C12.328 52.7029 12.3173 52.5082 12.296 52.3695C12.2747 52.2255 12.2373 52.0975 12.184 51.9855C12.12 51.7935 12.0053 51.6415 11.84 51.5295C11.68 51.4175 11.488 51.3615 11.264 51.3615C11.0507 51.3615 10.872 51.4175 10.728 51.5295C10.584 51.6415 10.4773 51.7909 10.408 51.9775C10.36 52.0842 10.3253 52.2095 10.304 52.3535C10.2827 52.4975 10.272 52.6975 10.272 52.9535C10.272 53.2095 10.2827 53.4122 10.304 53.5615C10.3253 53.7055 10.3627 53.8335 10.416 53.9455C10.48 54.1269 10.584 54.2735 10.728 54.3855C10.8773 54.4922 11.0533 54.5455 11.256 54.5455C11.4693 54.5455 11.6533 54.4922 11.808 54.3855C11.968 54.2789 12.0827 54.1375 12.152 53.9615ZM17.5421 49.3775C17.5954 49.3775 17.6221 49.4042 17.6221 49.4575V49.8015C17.6221 49.8549 17.5954 49.8815 17.5421 49.8815H15.9741C15.9527 49.8815 15.9421 49.8922 15.9421 49.9135V54.8975C15.9421 54.9509 15.9154 54.9775 15.8621 54.9775H15.4541C15.4007 54.9775 15.3741 54.9509 15.3741 54.8975V49.9135C15.3741 49.8922 15.3634 49.8815 15.3421 49.8815H13.8381C13.7847 49.8815 13.7581 49.8549 13.7581 49.8015V49.4575C13.7581 49.4042 13.7847 49.3775 13.8381 49.3775H17.5421ZM21.1503 52.2735C21.1716 52.4229 21.1823 52.6095 21.1823 52.8335V53.0895C21.1823 53.1429 21.1556 53.1695 21.1023 53.1695H18.5183C18.4969 53.1695 18.4863 53.1802 18.4863 53.2015C18.4969 53.4949 18.5129 53.6842 18.5343 53.7695C18.5929 54.0095 18.7183 54.1989 18.9103 54.3375C19.1023 54.4762 19.3476 54.5455 19.6463 54.5455C19.8703 54.5455 20.0676 54.4949 20.2383 54.3935C20.4089 54.2922 20.5423 54.1482 20.6383 53.9615C20.6703 53.9135 20.7076 53.9029 20.7503 53.9295L21.0623 54.1135C21.1049 54.1402 21.1156 54.1775 21.0943 54.2255C20.9609 54.4815 20.7609 54.6842 20.4943 54.8335C20.2276 54.9775 19.9209 55.0495 19.5743 55.0495C19.1956 55.0442 18.8783 54.9535 18.6223 54.7775C18.3663 54.6015 18.1823 54.3562 18.0703 54.0415C17.9743 53.7855 17.9263 53.4175 17.9263 52.9375C17.9263 52.7135 17.9289 52.5322 17.9342 52.3935C17.9449 52.2495 17.9663 52.1215 17.9983 52.0095C18.0889 51.6629 18.2703 51.3855 18.5423 51.1775C18.8196 50.9695 19.1529 50.8655 19.5423 50.8655C20.0276 50.8655 20.4009 50.9882 20.6623 51.2335C20.9236 51.4789 21.0863 51.8255 21.1503 52.2735ZM19.5423 51.3615C19.2809 51.3615 19.0623 51.4309 18.8863 51.5695C18.7156 51.7029 18.6036 51.8842 18.5503 52.1135C18.5183 52.2255 18.4969 52.4069 18.4863 52.6575C18.4863 52.6789 18.4969 52.6895 18.5183 52.6895H20.5903C20.6116 52.6895 20.6223 52.6789 20.6223 52.6575C20.6116 52.4175 20.5956 52.2469 20.5743 52.1455C20.5156 51.9055 20.3956 51.7162 20.2143 51.5775C20.0383 51.4335 19.8143 51.3615 19.5423 51.3615ZM24.0732 51.3215C24.0732 51.3749 24.0465 51.4015 23.9932 51.4015H23.0892C23.0679 51.4015 23.0572 51.4122 23.0572 51.4335V53.7935C23.0572 54.0495 23.1132 54.2309 23.2252 54.3375C23.3425 54.4389 23.5239 54.4895 23.7692 54.4895H23.9692C24.0225 54.4895 24.0492 54.5162 24.0492 54.5695V54.8975C24.0492 54.9509 24.0225 54.9775 23.9692 54.9775C23.9052 54.9829 23.8065 54.9855 23.6732 54.9855C23.2892 54.9855 22.9985 54.9135 22.8012 54.7695C22.6039 54.6255 22.5052 54.3589 22.5052 53.9695V51.4335C22.5052 51.4122 22.4945 51.4015 22.4732 51.4015H21.9852C21.9319 51.4015 21.9052 51.3749 21.9052 51.3215V51.0095C21.9052 50.9562 21.9319 50.9295 21.9852 50.9295H22.4732C22.4945 50.9295 22.5052 50.9189 22.5052 50.8975V49.9695C22.5052 49.9162 22.5319 49.8895 22.5852 49.8895H22.9772C23.0305 49.8895 23.0572 49.9162 23.0572 49.9695V50.8975C23.0572 50.9189 23.0679 50.9295 23.0892 50.9295H23.9932C24.0465 50.9295 24.0732 50.9562 24.0732 51.0095V51.3215Z" fill="black"/>
<path d="M50.784 51.9375C50.864 52.1935 50.904 52.5322 50.904 52.9535C50.904 53.3802 50.8693 53.7109 50.8 53.9455C50.704 54.2869 50.528 54.5562 50.272 54.7535C50.0213 54.9455 49.704 55.0415 49.32 55.0415C49.112 55.0415 48.92 55.0015 48.744 54.9215C48.568 54.8362 48.4213 54.7162 48.304 54.5615C48.2933 54.5509 48.2827 54.5482 48.272 54.5535C48.2667 54.5535 48.264 54.5589 48.264 54.5695V56.4495C48.264 56.5029 48.2373 56.5295 48.184 56.5295H47.776C47.7227 56.5295 47.696 56.5029 47.696 56.4495V51.0095C47.696 50.9562 47.7227 50.9295 47.776 50.9295H48.184C48.2373 50.9295 48.264 50.9562 48.264 51.0095V51.3455C48.264 51.3562 48.2667 51.3642 48.272 51.3695C48.2827 51.3695 48.2933 51.3642 48.304 51.3535C48.4213 51.1989 48.5653 51.0789 48.736 50.9935C48.912 50.9082 49.1067 50.8655 49.32 50.8655C49.6933 50.8655 50.0053 50.9615 50.256 51.1535C50.512 51.3455 50.688 51.6069 50.784 51.9375ZM50.152 53.9615C50.2107 53.8442 50.2533 53.7135 50.28 53.5695C50.312 53.4202 50.328 53.2149 50.328 52.9535C50.328 52.7029 50.3173 52.5082 50.296 52.3695C50.2747 52.2255 50.2373 52.0975 50.184 51.9855C50.12 51.7935 50.0053 51.6415 49.84 51.5295C49.68 51.4175 49.488 51.3615 49.264 51.3615C49.0507 51.3615 48.872 51.4175 48.728 51.5295C48.584 51.6415 48.4773 51.7909 48.408 51.9775C48.36 52.0842 48.3253 52.2095 48.304 52.3535C48.2827 52.4975 48.272 52.6975 48.272 52.9535C48.272 53.2095 48.2827 53.4122 48.304 53.5615C48.3253 53.7055 48.3627 53.8335 48.416 53.9455C48.48 54.1269 48.584 54.2735 48.728 54.3855C48.8773 54.4922 49.0533 54.5455 49.256 54.5455C49.4693 54.5455 49.6533 54.4922 49.808 54.3855C49.968 54.2789 50.0827 54.1375 50.152 53.9615ZM55.5421 49.3775C55.5954 49.3775 55.6221 49.4042 55.6221 49.4575V49.8015C55.6221 49.8549 55.5954 49.8815 55.5421 49.8815H53.9741C53.9527 49.8815 53.9421 49.8922 53.9421 49.9135V54.8975C53.9421 54.9509 53.9154 54.9775 53.8621 54.9775H53.4541C53.4007 54.9775 53.3741 54.9509 53.3741 54.8975V49.9135C53.3741 49.8922 53.3634 49.8815 53.3421 49.8815H51.8381C51.7847 49.8815 51.7581 49.8549 51.7581 49.8015V49.4575C51.7581 49.4042 51.7847 49.3775 51.8381 49.3775H55.5421ZM59.1503 52.2735C59.1716 52.4229 59.1823 52.6095 59.1823 52.8335V53.0895C59.1823 53.1429 59.1556 53.1695 59.1023 53.1695H56.5183C56.4969 53.1695 56.4863 53.1802 56.4863 53.2015C56.4969 53.4949 56.5129 53.6842 56.5343 53.7695C56.5929 54.0095 56.7183 54.1989 56.9103 54.3375C57.1023 54.4762 57.3476 54.5455 57.6463 54.5455C57.8703 54.5455 58.0676 54.4949 58.2383 54.3935C58.4089 54.2922 58.5423 54.1482 58.6383 53.9615C58.6703 53.9135 58.7076 53.9029 58.7503 53.9295L59.0623 54.1135C59.1049 54.1402 59.1156 54.1775 59.0943 54.2255C58.9609 54.4815 58.7609 54.6842 58.4943 54.8335C58.2276 54.9775 57.9209 55.0495 57.5743 55.0495C57.1956 55.0442 56.8783 54.9535 56.6223 54.7775C56.3663 54.6015 56.1823 54.3562 56.0703 54.0415C55.9743 53.7855 55.9263 53.4175 55.9263 52.9375C55.9263 52.7135 55.9289 52.5322 55.9342 52.3935C55.9449 52.2495 55.9663 52.1215 55.9983 52.0095C56.0889 51.6629 56.2703 51.3855 56.5423 51.1775C56.8196 50.9695 57.1529 50.8655 57.5423 50.8655C58.0276 50.8655 58.4009 50.9882 58.6623 51.2335C58.9236 51.4789 59.0863 51.8255 59.1503 52.2735ZM57.5423 51.3615C57.2809 51.3615 57.0623 51.4309 56.8863 51.5695C56.7156 51.7029 56.6036 51.8842 56.5503 52.1135C56.5183 52.2255 56.4969 52.4069 56.4863 52.6575C56.4863 52.6789 56.4969 52.6895 56.5183 52.6895H58.5903C58.6116 52.6895 58.6223 52.6789 58.6223 52.6575C58.6116 52.4175 58.5956 52.2469 58.5743 52.1455C58.5156 51.9055 58.3956 51.7162 58.2143 51.5775C58.0383 51.4335 57.8143 51.3615 57.5423 51.3615ZM62.0732 51.3215C62.0732 51.3749 62.0465 51.4015 61.9932 51.4015H61.0892C61.0679 51.4015 61.0572 51.4122 61.0572 51.4335V53.7935C61.0572 54.0495 61.1132 54.2309 61.2252 54.3375C61.3425 54.4389 61.5239 54.4895 61.7692 54.4895H61.9692C62.0225 54.4895 62.0492 54.5162 62.0492 54.5695V54.8975C62.0492 54.9509 62.0225 54.9775 61.9692 54.9775C61.9052 54.9829 61.8065 54.9855 61.6732 54.9855C61.2892 54.9855 60.9985 54.9135 60.8012 54.7695C60.6039 54.6255 60.5052 54.3589 60.5052 53.9695V51.4335C60.5052 51.4122 60.4945 51.4015 60.4732 51.4015H59.9852C59.9319 51.4015 59.9052 51.3749 59.9052 51.3215V51.0095C59.9052 50.9562 59.9319 50.9295 59.9852 50.9295H60.4732C60.4945 50.9295 60.5052 50.9189 60.5052 50.8975V49.9695C60.5052 49.9162 60.5319 49.8895 60.5852 49.8895H60.9772C61.0305 49.8895 61.0572 49.9162 61.0572 49.9695V50.8975C61.0572 50.9189 61.0679 50.9295 61.0892 50.9295H61.9932C62.0465 50.9295 62.0732 50.9562 62.0732 51.0095V51.3215Z" fill="black"/>
<path d="M182.565 54.9775C182.512 54.9775 182.485 54.9509 182.485 54.8975V49.4575C182.485 49.4042 182.512 49.3775 182.565 49.3775H182.973C183.026 49.3775 183.053 49.4042 183.053 49.4575V54.8975C183.053 54.9509 183.026 54.9775 182.973 54.9775H182.565ZM185.971 55.0415C185.587 55.0415 185.257 54.9429 184.979 54.7455C184.707 54.5429 184.521 54.2709 184.419 53.9295C184.35 53.6949 184.315 53.3642 184.315 52.9375C184.315 52.5535 184.35 52.2282 184.419 51.9615C184.515 51.6309 184.702 51.3669 184.979 51.1695C185.257 50.9669 185.587 50.8655 185.971 50.8655C186.361 50.8655 186.697 50.9642 186.979 51.1615C187.267 51.3589 187.454 51.6042 187.539 51.8975C187.566 51.9935 187.582 52.0735 187.587 52.1375V52.1535C187.587 52.1909 187.563 52.2149 187.515 52.2255L187.115 52.2815H187.099C187.062 52.2815 187.038 52.2575 187.027 52.2095L187.003 52.0895C186.955 51.8869 186.838 51.7162 186.651 51.5775C186.465 51.4335 186.238 51.3615 185.971 51.3615C185.705 51.3615 185.481 51.4335 185.299 51.5775C185.123 51.7162 185.009 51.9029 184.955 52.1375C184.907 52.3402 184.883 52.6095 184.883 52.9455C184.883 53.2975 184.907 53.5695 184.955 53.7615C185.009 54.0015 185.123 54.1935 185.299 54.3375C185.481 54.4762 185.705 54.5455 185.971 54.5455C186.233 54.5455 186.457 54.4789 186.643 54.3455C186.835 54.2069 186.955 54.0309 187.003 53.8175V53.7855L187.011 53.7535C187.017 53.7002 187.049 53.6789 187.107 53.6895L187.499 53.7535C187.553 53.7642 187.577 53.7935 187.571 53.8415L187.539 54.0015C187.459 54.3109 187.275 54.5615 186.987 54.7535C186.699 54.9455 186.361 55.0415 185.971 55.0415ZM189.999 50.8655C190.479 50.8655 190.85 50.9882 191.111 51.2335C191.373 51.4789 191.503 51.8042 191.503 52.2095V54.8975C191.503 54.9509 191.477 54.9775 191.423 54.9775H191.015C190.962 54.9775 190.935 54.9509 190.935 54.8975V54.5695C190.935 54.5589 190.93 54.5509 190.919 54.5455C190.914 54.5402 190.906 54.5429 190.895 54.5535C190.762 54.7135 190.589 54.8362 190.375 54.9215C190.162 55.0015 189.925 55.0415 189.663 55.0415C189.285 55.0415 188.967 54.9455 188.711 54.7535C188.455 54.5615 188.327 54.2682 188.327 53.8735C188.327 53.4735 188.471 53.1589 188.759 52.9295C189.053 52.6949 189.458 52.5775 189.975 52.5775H190.903C190.925 52.5775 190.935 52.5669 190.935 52.5455V52.2415C190.935 51.9695 190.858 51.7562 190.703 51.6015C190.554 51.4415 190.319 51.3615 189.999 51.3615C189.743 51.3615 189.535 51.4122 189.375 51.5135C189.215 51.6095 189.117 51.7455 189.079 51.9215C189.063 51.9749 189.031 51.9989 188.983 51.9935L188.551 51.9375C188.493 51.9269 188.469 51.9055 188.479 51.8735C188.522 51.5749 188.682 51.3322 188.959 51.1455C189.237 50.9589 189.583 50.8655 189.999 50.8655ZM189.775 54.5535C190.09 54.5535 190.362 54.4762 190.591 54.3215C190.821 54.1615 190.935 53.9482 190.935 53.6815V53.0575C190.935 53.0362 190.925 53.0255 190.903 53.0255H190.063C189.711 53.0255 189.429 53.0975 189.215 53.2415C189.002 53.3855 188.895 53.5855 188.895 53.8415C188.895 54.0762 188.975 54.2549 189.135 54.3775C189.301 54.4949 189.514 54.5535 189.775 54.5535ZM196.061 54.9775C196.013 54.9775 195.981 54.9589 195.965 54.9215L194.789 52.4415C194.784 52.4255 194.773 52.4175 194.757 52.4175H193.397C193.376 52.4175 193.365 52.4282 193.365 52.4495V54.8975C193.365 54.9509 193.339 54.9775 193.285 54.9775H192.877C192.824 54.9775 192.797 54.9509 192.797 54.8975V49.4575C192.797 49.4042 192.824 49.3775 192.877 49.3775H194.949C195.408 49.3775 195.779 49.5215 196.061 49.8095C196.344 50.0922 196.485 50.4629 196.485 50.9215C196.485 51.2949 196.384 51.6122 196.181 51.8735C195.979 52.1349 195.704 52.3029 195.357 52.3775C195.336 52.3882 195.331 52.4015 195.341 52.4175L196.541 54.8815C196.547 54.8922 196.549 54.9055 196.549 54.9215C196.549 54.9589 196.528 54.9775 196.485 54.9775H196.061ZM193.397 49.8735C193.376 49.8735 193.365 49.8842 193.365 49.9055V51.9295C193.365 51.9509 193.376 51.9615 193.397 51.9615H194.885C195.195 51.9615 195.445 51.8655 195.637 51.6735C195.829 51.4815 195.925 51.2309 195.925 50.9215C195.925 50.6122 195.829 50.3615 195.637 50.1695C195.445 49.9722 195.195 49.8735 194.885 49.8735H193.397ZM201.313 54.9775C201.265 54.9775 201.233 54.9562 201.217 54.9135L200.897 53.9055C200.891 53.8895 200.881 53.8815 200.865 53.8815H198.473C198.457 53.8815 198.446 53.8895 198.441 53.9055L198.121 54.9135C198.105 54.9562 198.073 54.9775 198.025 54.9775H197.593C197.534 54.9775 197.513 54.9482 197.529 54.8895L199.297 49.4415C199.313 49.3989 199.345 49.3775 199.393 49.3775H199.937C199.985 49.3775 200.017 49.3989 200.033 49.4415L201.809 54.8895L201.817 54.9215C201.817 54.9589 201.793 54.9775 201.745 54.9775H201.313ZM198.601 53.3775C198.595 53.3882 198.595 53.3989 198.601 53.4095C198.611 53.4149 198.622 53.4175 198.633 53.4175H200.697C200.707 53.4175 200.715 53.4149 200.721 53.4095C200.731 53.3989 200.734 53.3882 200.729 53.3775L199.689 50.1135C199.683 50.1029 199.675 50.0975 199.665 50.0975C199.654 50.0975 199.646 50.1029 199.641 50.1135L198.601 53.3775Z" fill="black"/>
<path d="M270.784 51.9375C270.864 52.1935 270.904 52.5322 270.904 52.9535C270.904 53.3802 270.869 53.7109 270.8 53.9455C270.704 54.2869 270.528 54.5562 270.272 54.7535C270.021 54.9455 269.704 55.0415 269.32 55.0415C269.112 55.0415 268.92 55.0015 268.744 54.9215C268.568 54.8362 268.421 54.7162 268.304 54.5615C268.293 54.5509 268.283 54.5482 268.272 54.5535C268.267 54.5535 268.264 54.5589 268.264 54.5695V56.4495C268.264 56.5029 268.237 56.5295 268.184 56.5295H267.776C267.723 56.5295 267.696 56.5029 267.696 56.4495V51.0095C267.696 50.9562 267.723 50.9295 267.776 50.9295H268.184C268.237 50.9295 268.264 50.9562 268.264 51.0095V51.3455C268.264 51.3562 268.267 51.3642 268.272 51.3695C268.283 51.3695 268.293 51.3642 268.304 51.3535C268.421 51.1989 268.565 51.0789 268.736 50.9935C268.912 50.9082 269.107 50.8655 269.32 50.8655C269.693 50.8655 270.005 50.9615 270.256 51.1535C270.512 51.3455 270.688 51.6069 270.784 51.9375ZM270.152 53.9615C270.211 53.8442 270.253 53.7135 270.28 53.5695C270.312 53.4202 270.328 53.2149 270.328 52.9535C270.328 52.7029 270.317 52.5082 270.296 52.3695C270.275 52.2255 270.237 52.0975 270.184 51.9855C270.12 51.7935 270.005 51.6415 269.84 51.5295C269.68 51.4175 269.488 51.3615 269.264 51.3615C269.051 51.3615 268.872 51.4175 268.728 51.5295C268.584 51.6415 268.477 51.7909 268.408 51.9775C268.36 52.0842 268.325 52.2095 268.304 52.3535C268.283 52.4975 268.272 52.6975 268.272 52.9535C268.272 53.2095 268.283 53.4122 268.304 53.5615C268.325 53.7055 268.363 53.8335 268.416 53.9455C268.48 54.1269 268.584 54.2735 268.728 54.3855C268.877 54.4922 269.053 54.5455 269.256 54.5455C269.469 54.5455 269.653 54.4922 269.808 54.3855C269.968 54.2789 270.083 54.1375 270.152 53.9615ZM272.246 54.9775C272.193 54.9775 272.166 54.9509 272.166 54.8975V49.4575C272.166 49.4042 272.193 49.3775 272.246 49.3775H272.654C272.707 49.3775 272.734 49.4042 272.734 49.4575V54.8975C272.734 54.9509 272.707 54.9775 272.654 54.9775H272.246ZM275.652 55.0415C275.268 55.0415 274.938 54.9429 274.66 54.7455C274.388 54.5429 274.202 54.2709 274.1 53.9295C274.031 53.6949 273.996 53.3642 273.996 52.9375C273.996 52.5535 274.031 52.2282 274.1 51.9615C274.196 51.6309 274.383 51.3669 274.66 51.1695C274.938 50.9669 275.268 50.8655 275.652 50.8655C276.042 50.8655 276.378 50.9642 276.66 51.1615C276.948 51.3589 277.135 51.6042 277.22 51.8975C277.247 51.9935 277.263 52.0735 277.268 52.1375V52.1535C277.268 52.1909 277.244 52.2149 277.196 52.2255L276.796 52.2815H276.78C276.743 52.2815 276.719 52.2575 276.708 52.2095L276.684 52.0895C276.636 51.8869 276.519 51.7162 276.332 51.5775C276.146 51.4335 275.919 51.3615 275.652 51.3615C275.386 51.3615 275.162 51.4335 274.98 51.5775C274.804 51.7162 274.69 51.9029 274.636 52.1375C274.588 52.3402 274.564 52.6095 274.564 52.9455C274.564 53.2975 274.588 53.5695 274.636 53.7615C274.69 54.0015 274.804 54.1935 274.98 54.3375C275.162 54.4762 275.386 54.5455 275.652 54.5455C275.914 54.5455 276.138 54.4789 276.324 54.3455C276.516 54.2069 276.636 54.0309 276.684 53.8175V53.7855L276.692 53.7535C276.698 53.7002 276.73 53.6789 276.788 53.6895L277.18 53.7535C277.234 53.7642 277.258 53.7935 277.252 53.8415L277.22 54.0015C277.14 54.3109 276.956 54.5615 276.668 54.7535C276.38 54.9455 276.042 55.0415 275.652 55.0415ZM279.681 50.8655C280.161 50.8655 280.531 50.9882 280.793 51.2335C281.054 51.4789 281.185 51.8042 281.185 52.2095V54.8975C281.185 54.9509 281.158 54.9775 281.105 54.9775H280.697C280.643 54.9775 280.617 54.9509 280.617 54.8975V54.5695C280.617 54.5589 280.611 54.5509 280.601 54.5455C280.595 54.5402 280.587 54.5429 280.577 54.5535C280.443 54.7135 280.27 54.8362 280.057 54.9215C279.843 55.0015 279.606 55.0415 279.345 55.0415C278.966 55.0415 278.649 54.9455 278.393 54.7535C278.137 54.5615 278.009 54.2682 278.009 53.8735C278.009 53.4735 278.153 53.1589 278.441 52.9295C278.734 52.6949 279.139 52.5775 279.657 52.5775H280.585C280.606 52.5775 280.617 52.5669 280.617 52.5455V52.2415C280.617 51.9695 280.539 51.7562 280.385 51.6015C280.235 51.4415 280.001 51.3615 279.681 51.3615C279.425 51.3615 279.217 51.4122 279.057 51.5135C278.897 51.6095 278.798 51.7455 278.761 51.9215C278.745 51.9749 278.713 51.9989 278.665 51.9935L278.233 51.9375C278.174 51.9269 278.15 51.9055 278.161 51.8735C278.203 51.5749 278.363 51.3322 278.641 51.1455C278.918 50.9589 279.265 50.8655 279.681 50.8655ZM279.457 54.5535C279.771 54.5535 280.043 54.4762 280.273 54.3215C280.502 54.1615 280.617 53.9482 280.617 53.6815V53.0575C280.617 53.0362 280.606 53.0255 280.585 53.0255H279.745C279.393 53.0255 279.11 53.0975 278.897 53.2415C278.683 53.3855 278.577 53.5855 278.577 53.8415C278.577 54.0762 278.657 54.2549 278.817 54.3775C278.982 54.4949 279.195 54.5535 279.457 54.5535ZM285.743 54.9775C285.695 54.9775 285.663 54.9589 285.647 54.9215L284.471 52.4415C284.465 52.4255 284.455 52.4175 284.439 52.4175H283.079C283.057 52.4175 283.047 52.4282 283.047 52.4495V54.8975C283.047 54.9509 283.02 54.9775 282.967 54.9775H282.559C282.505 54.9775 282.479 54.9509 282.479 54.8975V49.4575C282.479 49.4042 282.505 49.3775 282.559 49.3775H284.631C285.089 49.3775 285.46 49.5215 285.743 49.8095C286.025 50.0922 286.167 50.4629 286.167 50.9215C286.167 51.2949 286.065 51.6122 285.863 51.8735C285.66 52.1349 285.385 52.3029 285.039 52.3775C285.017 52.3882 285.012 52.4015 285.023 52.4175L286.223 54.8815C286.228 54.8922 286.231 54.9055 286.231 54.9215C286.231 54.9589 286.209 54.9775 286.167 54.9775H285.743ZM283.079 49.8735C283.057 49.8735 283.047 49.8842 283.047 49.9055V51.9295C283.047 51.9509 283.057 51.9615 283.079 51.9615H284.567C284.876 51.9615 285.127 51.8655 285.319 51.6735C285.511 51.4815 285.607 51.2309 285.607 50.9215C285.607 50.6122 285.511 50.3615 285.319 50.1695C285.127 49.9722 284.876 49.8735 284.567 49.8735H283.079ZM290.994 54.9775C290.946 54.9775 290.914 54.9562 290.898 54.9135L290.578 53.9055C290.573 53.8895 290.562 53.8815 290.546 53.8815H288.154C288.138 53.8815 288.127 53.8895 288.122 53.9055L287.802 54.9135C287.786 54.9562 287.754 54.9775 287.706 54.9775H287.274C287.215 54.9775 287.194 54.9482 287.21 54.8895L288.978 49.4415C288.994 49.3989 289.026 49.3775 289.074 49.3775H289.618C289.666 49.3775 289.698 49.3989 289.714 49.4415L291.49 54.8895L291.498 54.9215C291.498 54.9589 291.474 54.9775 291.426 54.9775H290.994ZM288.282 53.3775C288.277 53.3882 288.277 53.3989 288.282 53.4095C288.293 53.4149 288.303 53.4175 288.314 53.4175H290.378C290.389 53.4175 290.397 53.4149 290.402 53.4095C290.413 53.3989 290.415 53.3882 290.41 53.3775L289.37 50.1135C289.365 50.1029 289.357 50.0975 289.346 50.0975C289.335 50.0975 289.327 50.1029 289.322 50.1135L288.282 53.3775Z" fill="black"/>
<path d="M407.155 54.9775C407.107 54.9775 407.075 54.9589 407.059 54.9215L405.883 52.4415C405.877 52.4255 405.867 52.4175 405.851 52.4175H404.491C404.469 52.4175 404.459 52.4282 404.459 52.4495V54.8975C404.459 54.9509 404.432 54.9775 404.379 54.9775H403.971C403.917 54.9775 403.891 54.9509 403.891 54.8975V49.4575C403.891 49.4042 403.917 49.3775 403.971 49.3775H406.043C406.501 49.3775 406.872 49.5215 407.155 49.8095C407.437 50.0922 407.579 50.4629 407.579 50.9215C407.579 51.2949 407.477 51.6122 407.275 51.8735C407.072 52.1349 406.797 52.3029 406.451 52.3775C406.429 52.3882 406.424 52.4015 406.435 52.4175L407.635 54.8815C407.64 54.8922 407.643 54.9055 407.643 54.9215C407.643 54.9589 407.621 54.9775 407.579 54.9775H407.155ZM404.491 49.8735C404.469 49.8735 404.459 49.8842 404.459 49.9055V51.9295C404.459 51.9509 404.469 51.9615 404.491 51.9615H405.979C406.288 51.9615 406.539 51.8655 406.731 51.6735C406.923 51.4815 407.019 51.2309 407.019 50.9215C407.019 50.6122 406.923 50.3615 406.731 50.1695C406.539 49.9722 406.288 49.8735 405.979 49.8735H404.491ZM412.405 49.7935C412.405 49.8469 412.378 49.8735 412.325 49.8735H409.389C409.368 49.8735 409.357 49.8842 409.357 49.9055V51.8815C409.357 51.9029 409.368 51.9135 409.389 51.9135H411.445C411.498 51.9135 411.525 51.9402 411.525 51.9935V52.3295C411.525 52.3829 411.498 52.4095 411.445 52.4095H409.389C409.368 52.4095 409.357 52.4202 409.357 52.4415V54.8975C409.357 54.9509 409.33 54.9775 409.277 54.9775H408.869C408.816 54.9775 408.789 54.9509 408.789 54.8975V49.4575C408.789 49.4042 408.816 49.3775 408.869 49.3775H412.325C412.378 49.3775 412.405 49.4042 412.405 49.4575V49.7935ZM415.464 49.3695C415.933 49.3695 416.309 49.5135 416.592 49.8015C416.88 50.0895 417.024 50.4682 417.024 50.9375C417.024 51.4015 416.877 51.7749 416.584 52.0575C416.296 52.3402 415.915 52.4815 415.44 52.4815H413.88C413.859 52.4815 413.848 52.4922 413.848 52.5135V54.8975C413.848 54.9509 413.821 54.9775 413.768 54.9775H413.36C413.307 54.9775 413.28 54.9509 413.28 54.8975V49.4495C413.28 49.3962 413.307 49.3695 413.36 49.3695H415.464ZM415.4 52.0095C415.715 52.0095 415.971 51.9135 416.168 51.7215C416.365 51.5242 416.464 51.2655 416.464 50.9455C416.464 50.6202 416.365 50.3589 416.168 50.1615C415.971 49.9642 415.715 49.8655 415.4 49.8655H413.88C413.859 49.8655 413.848 49.8762 413.848 49.8975V51.9775C413.848 51.9989 413.859 52.0095 413.88 52.0095H415.4Z" fill="black"/>
<path fill-rule="evenodd" clip-rule="evenodd" d="M47 41.5H38V38.5H47V41.5Z" fill="black"/>
<path fill-rule="evenodd" clip-rule="evenodd" d="M76 41.5H47V38.5H76V41.5Z" fill="black"/>
<path fill-rule="evenodd" clip-rule="evenodd" d="M61.26 12.5L57.0161 8.25609L59.1374 6.13477L66.9998 13.9971L66.997 13.9999L67 14.0028L59.1376 21.8652L57.0163 19.7439L61.2602 15.5H50L50 38.5H47V15.5V12.5H61.26Z" fill="black"/>
<path fill-rule="evenodd" clip-rule="evenodd" d="M85 41.5H76V38.5H85V41.5Z" fill="black"/>
<path fill-rule="evenodd" clip-rule="evenodd" d="M109.234 41.5H85V38.5H109.234V41.5Z" fill="black"/>
<path fill-rule="evenodd" clip-rule="evenodd" d="M92.5 18.8345C95.2614 18.8345 97.5 16.6255 97.5 13.9007C97.5 11.1758 95.2614 8.96689 92.5 8.96689C89.7386 8.96689 87.5 11.1758 87.5 13.9007C87.5 16.6255 89.7386 18.8345 92.5 18.8345ZM92.5 21.3014C96.6421 21.3014 100 17.988 100 13.9007C100 9.8134 96.6421 6.5 92.5 6.5C88.3579 6.5 85 9.8134 85 13.9007C85 17.988 88.3579 21.3014 92.5 21.3014Z" fill="black"/>
<path fill-rule="evenodd" clip-rule="evenodd" d="M91.2694 29.5607V23.1503H93.731V29.5607H91.2694Z" fill="black"/>
<path fill-rule="evenodd" clip-rule="evenodd" d="M91.2694 38.5V32.0896H93.731V38.5H91.2694Z" fill="black"/>
<path fill-rule="evenodd" clip-rule="evenodd" d="M119.007 41.5H109V38.5H119.007V41.5Z" fill="black"/>
<path fill-rule="evenodd" clip-rule="evenodd" d="M157 41.5H147.241V38.5H157V41.5Z" fill="black"/>
<path d="M119.6 40H119.582C120.329 33.2501 126.051 28 133 28C139.949 28 145.671 33.2501 146.418 40H146.4H146.38H146.359H146.338H146.317H146.296H146.275H146.254H146.233H146.211H146.19H146.168H146.146H146.124H146.102H146.08H146.058H146.035H146.013H145.99H145.967H145.944H145.921H145.898H145.875H145.852H145.828H145.805H145.781H145.757H145.734H145.71H145.685H145.661H145.637H145.612H145.588H145.563H145.538H145.514H145.489H145.463H145.438H145.413H145.387H145.362H145.336H145.311H145.285H145.259H145.233H145.206H145.18H145.154H145.127H145.101H145.074H145.047H145.02H144.993H144.966H144.939H144.911H144.884H144.856H144.828H144.801H144.773H144.745H144.717H144.689H144.66H144.632H144.603H144.575H144.546H144.517H144.488H144.459H144.43H144.401H144.372H144.342H144.313H144.283H144.253H144.224H144.194H144.164H144.133H144.103H144.073H144.043H144.012H143.981H143.951H143.92H143.889H143.858H143.827H143.796H143.764H143.733H143.702H143.67H143.638H143.607H143.575H143.543H143.511H143.479H143.446H143.414H143.382H143.349H143.316H143.284H143.251H143.218H143.185H143.152H143.119H143.086H143.052H143.019H142.985H142.952H142.918H142.884H142.85H142.816H142.782H142.748H142.714H142.68H142.645H142.611H142.576H142.541H142.507H142.472H142.437H142.402H142.367H142.331H142.296H142.261H142.225H142.19H142.154H142.118H142.083H142.047H142.011H141.975H141.939H141.902H141.866H141.83H141.793H141.757H141.72H141.683H141.647H141.61H141.573H141.536H141.499H141.461H141.424H141.387H141.349H141.312H141.274H141.236H141.199H141.161H141.123H141.085H141.047H141.009H140.97H140.932H140.894H140.855H140.817H140.778H140.739H140.701H140.662H140.623H140.584H140.545H140.506H140.466H140.427H140.388H140.348H140.309H140.269H140.229H140.19H140.15H140.11H140.07H140.03H139.99H139.95H139.909H139.869H139.829H139.788H139.748H139.707H139.667H139.626H139.585H139.544H139.503H139.462H139.421H139.38H139.339H139.297H139.256H139.215H139.173H139.131H139.09H139.048H139.006H138.965H138.923H138.881H138.839H138.797H138.754H138.712H138.67H138.628H138.585H138.543H138.5H138.458H138.415H138.372H138.329H138.286H138.244H138.201H138.158H138.114H138.071H138.028H137.985H137.941H137.898H137.854H137.811H137.767H137.724H137.68H137.636H137.592H137.548H137.505H137.461H137.416H137.372H137.328H137.284H137.24H137.195H137.151H137.106H137.062H137.017H136.973H136.928H136.883H136.838H136.794H136.749H136.704H136.659H136.614H136.569H136.523H136.478H136.433H136.388H136.342H136.297H136.251H136.206H136.16H136.114H136.069H136.023H135.977H135.931H135.885H135.84H135.794H135.747H135.701H135.655H135.609H135.563H135.517H135.47H135.424H135.377H135.331H135.284H135.238H135.191H135.144H135.098H135.051H135.004H134.957H134.91H134.864H134.817H134.769H134.722H134.675H134.628H134.581H134.534H134.486H134.439H134.392H134.344H134.297H134.249H134.202H134.154H134.106H134.059H134.011H133.963H133.916H133.868H133.82H133.772H133.724H133.676H133.628H133.58H133.532H133.484H133.435H133.387H133.339H133.291H133.242H133.194H133.145H133.097H133.049H133H132.951H132.903H132.855H132.806H132.758H132.709H132.661H132.613H132.565H132.516H132.468H132.42H132.372H132.324H132.276H132.228H132.18H132.132H132.084H132.037H131.989H131.941H131.894H131.846H131.798H131.751H131.703H131.656H131.608H131.561H131.514H131.466H131.419H131.372H131.325H131.278H131.231H131.183H131.136H131.09H131.043H130.996H130.949H130.902H130.856H130.809H130.762H130.716H130.669H130.623H130.576H130.53H130.483H130.437H130.391H130.345H130.299H130.253H130.206H130.16H130.115H130.069H130.023H129.977H129.931H129.886H129.84H129.794H129.749H129.703H129.658H129.612H129.567H129.522H129.477H129.431H129.386H129.341H129.296H129.251H129.206H129.162H129.117H129.072H129.027H128.983H128.938H128.894H128.849H128.805H128.76H128.716H128.672H128.628H128.584H128.539H128.495H128.452H128.408H128.364H128.32H128.276H128.233H128.189H128.146H128.102H128.059H128.015H127.972H127.929H127.886H127.842H127.799H127.756H127.714H127.671H127.628H127.585H127.542H127.5H127.457H127.415H127.372H127.33H127.288H127.246H127.203H127.161H127.119H127.077H127.035H126.994H126.952H126.91H126.869H126.827H126.785H126.744H126.703H126.661H126.62H126.579H126.538H126.497H126.456H126.415H126.374H126.333H126.293H126.252H126.212H126.171H126.131H126.091H126.05H126.01H125.97H125.93H125.89H125.85H125.81H125.771H125.731H125.691H125.652H125.612H125.573H125.534H125.494H125.455H125.416H125.377H125.338H125.299H125.261H125.222H125.183H125.145H125.106H125.068H125.03H124.991H124.953H124.915H124.877H124.839H124.801H124.764H124.726H124.688H124.651H124.613H124.576H124.539H124.501H124.464H124.427H124.39H124.353H124.317H124.28H124.243H124.207H124.17H124.134H124.098H124.061H124.025H123.989H123.953H123.917H123.882H123.846H123.81H123.775H123.739H123.704H123.669H123.633H123.598H123.563H123.528H123.493H123.459H123.424H123.389H123.355H123.32H123.286H123.252H123.218H123.184H123.15H123.116H123.082H123.048H123.015H122.981H122.948H122.914H122.881H122.848H122.815H122.782H122.749H122.716H122.684H122.651H122.618H122.586H122.554H122.521H122.489H122.457H122.425H122.393H122.362H122.33H122.298H122.267H122.236H122.204H122.173H122.142H122.111H122.08H122.049H122.019H121.988H121.957H121.927H121.897H121.867H121.836H121.806H121.776H121.747H121.717H121.687H121.658H121.628H121.599H121.57H121.541H121.512H121.483H121.454H121.425H121.397H121.368H121.34H121.311H121.283H121.255H121.227H121.199H121.172H121.144H121.116H121.089H121.061H121.034H121.007H120.98H120.953H120.926H120.899H120.873H120.846H120.82H120.794H120.767H120.741H120.715H120.689H120.664H120.638H120.613H120.587H120.562H120.537H120.511H120.486H120.462H120.437H120.412H120.388H120.363H120.339H120.315H120.29H120.266H120.243H120.219H120.195H120.172H120.148H120.125H120.102H120.079H120.056H120.033H120.01H119.987H119.965H119.942H119.92H119.898H119.876H119.854H119.832H119.81H119.789H119.767H119.746H119.725H119.704H119.683H119.662H119.641H119.62H119.6Z" fill="#FE6565" stroke="black" stroke-width="3"/>
<path fill-rule="evenodd" clip-rule="evenodd" d="M225 41.5H210.907V38.5H225V41.5Z" fill="black"/>
<path fill-rule="evenodd" clip-rule="evenodd" d="M166 41.5H157V38.5H166V41.5Z" fill="black"/>
<path d="M167.5 28L200.345 28L212.373 40H167.5V28Z" fill="#FE6565" stroke="black" stroke-width="3"/>
<path fill-rule="evenodd" clip-rule="evenodd" d="M234 41.5H225V38.5H234V41.5Z" fill="black"/>
<path fill-rule="evenodd" clip-rule="evenodd" d="M258 41.5H234V38.5H258V41.5Z" fill="black"/>
<rect x="240" y="12.5" width="3" height="26" fill="black"/>
<rect x="233" y="15.5" width="3" height="17" transform="rotate(-90 233 15.5)" fill="black"/>
<path fill-rule="evenodd" clip-rule="evenodd" d="M267 41.5H258V38.5H267V41.5Z" fill="black"/>
<path fill-rule="evenodd" clip-rule="evenodd" d="M296 41.5H267V38.5H296V41.5Z" fill="black"/>
<path fill-rule="evenodd" clip-rule="evenodd" d="M281.26 12.5L277.016 8.25609L279.137 6.13477L287 13.9971L286.997 13.9999L287 14.0028L279.138 21.8652L277.016 19.7439L281.26 15.5H270L270 38.5H267V15.5V12.5H281.26Z" fill="#FE6565"/>
<path fill-rule="evenodd" clip-rule="evenodd" d="M305 41.5H296V38.5H305V41.5Z" fill="black"/>
<path fill-rule="evenodd" clip-rule="evenodd" d="M329.234 41.5H305V38.5H329.234V41.5Z" fill="black"/>
<path fill-rule="evenodd" clip-rule="evenodd" d="M312.5 18.8345C315.261 18.8345 317.5 16.6255 317.5 13.9007C317.5 11.1758 315.261 8.96689 312.5 8.96689C309.739 8.96689 307.5 11.1758 307.5 13.9007C307.5 16.6255 309.739 18.8345 312.5 18.8345ZM312.5 21.3014C316.642 21.3014 320 17.988 320 13.9007C320 9.8134 316.642 6.5 312.5 6.5C308.358 6.5 305 9.8134 305 13.9007C305 17.988 308.358 21.3014 312.5 21.3014Z" fill="black"/>
<path fill-rule="evenodd" clip-rule="evenodd" d="M311.269 29.5607V23.1503H313.731V29.5607H311.269Z" fill="black"/>
<path fill-rule="evenodd" clip-rule="evenodd" d="M311.269 38.5V32.0896H313.731V38.5H311.269Z" fill="black"/>
<path fill-rule="evenodd" clip-rule="evenodd" d="M339.007 41.5H329V38.5H339.007V41.5Z" fill="black"/>
<path fill-rule="evenodd" clip-rule="evenodd" d="M377 41.5H367.241V38.5H377V41.5Z" fill="black"/>
<path d="M339.6 40H339.582C340.329 33.2501 346.051 28 353 28C359.949 28 365.671 33.2501 366.418 40H366.4H366.38H366.359H366.338H366.317H366.296H366.275H366.254H366.233H366.211H366.19H366.168H366.146H366.124H366.102H366.08H366.058H366.035H366.013H365.99H365.967H365.944H365.921H365.898H365.875H365.852H365.828H365.805H365.781H365.757H365.734H365.71H365.685H365.661H365.637H365.612H365.588H365.563H365.538H365.514H365.489H365.463H365.438H365.413H365.387H365.362H365.336H365.311H365.285H365.259H365.233H365.206H365.18H365.154H365.127H365.101H365.074H365.047H365.02H364.993H364.966H364.939H364.911H364.884H364.856H364.828H364.801H364.773H364.745H364.717H364.689H364.66H364.632H364.603H364.575H364.546H364.517H364.488H364.459H364.43H364.401H364.372H364.342H364.313H364.283H364.253H364.224H364.194H364.164H364.133H364.103H364.073H364.043H364.012H363.981H363.951H363.92H363.889H363.858H363.827H363.796H363.764H363.733H363.702H363.67H363.638H363.607H363.575H363.543H363.511H363.479H363.446H363.414H363.382H363.349H363.316H363.284H363.251H363.218H363.185H363.152H363.119H363.086H363.052H363.019H362.985H362.952H362.918H362.884H362.85H362.816H362.782H362.748H362.714H362.68H362.645H362.611H362.576H362.541H362.507H362.472H362.437H362.402H362.367H362.331H362.296H362.261H362.225H362.19H362.154H362.118H362.083H362.047H362.011H361.975H361.939H361.902H361.866H361.83H361.793H361.757H361.72H361.683H361.647H361.61H361.573H361.536H361.499H361.461H361.424H361.387H361.349H361.312H361.274H361.236H361.199H361.161H361.123H361.085H361.047H361.009H360.97H360.932H360.894H360.855H360.817H360.778H360.739H360.701H360.662H360.623H360.584H360.545H360.506H360.466H360.427H360.388H360.348H360.309H360.269H360.229H360.19H360.15H360.11H360.07H360.03H359.99H359.95H359.909H359.869H359.829H359.788H359.748H359.707H359.667H359.626H359.585H359.544H359.503H359.462H359.421H359.38H359.339H359.297H359.256H359.215H359.173H359.131H359.09H359.048H359.006H358.965H358.923H358.881H358.839H358.797H358.754H358.712H358.67H358.628H358.585H358.543H358.5H358.458H358.415H358.372H358.329H358.286H358.244H358.201H358.158H358.114H358.071H358.028H357.985H357.941H357.898H357.854H357.811H357.767H357.724H357.68H357.636H357.592H357.548H357.505H357.461H357.416H357.372H357.328H357.284H357.24H357.195H357.151H357.106H357.062H357.017H356.973H356.928H356.883H356.838H356.794H356.749H356.704H356.659H356.614H356.569H356.523H356.478H356.433H356.388H356.342H356.297H356.251H356.206H356.16H356.114H356.069H356.023H355.977H355.931H355.885H355.84H355.794H355.747H355.701H355.655H355.609H355.563H355.517H355.47H355.424H355.377H355.331H355.284H355.238H355.191H355.144H355.098H355.051H355.004H354.957H354.91H354.864H354.817H354.769H354.722H354.675H354.628H354.581H354.534H354.486H354.439H354.392H354.344H354.297H354.249H354.202H354.154H354.106H354.059H354.011H353.963H353.916H353.868H353.82H353.772H353.724H353.676H353.628H353.58H353.532H353.484H353.435H353.387H353.339H353.291H353.242H353.194H353.145H353.097H353.049H353H352.951H352.903H352.855H352.806H352.758H352.709H352.661H352.613H352.565H352.516H352.468H352.42H352.372H352.324H352.276H352.228H352.18H352.132H352.084H352.037H351.989H351.941H351.894H351.846H351.798H351.751H351.703H351.656H351.608H351.561H351.514H351.466H351.419H351.372H351.325H351.278H351.231H351.183H351.136H351.09H351.043H350.996H350.949H350.902H350.856H350.809H350.762H350.716H350.669H350.623H350.576H350.53H350.483H350.437H350.391H350.345H350.299H350.253H350.206H350.16H350.115H350.069H350.023H349.977H349.931H349.886H349.84H349.794H349.749H349.703H349.658H349.612H349.567H349.522H349.477H349.431H349.386H349.341H349.296H349.251H349.206H349.162H349.117H349.072H349.027H348.983H348.938H348.894H348.849H348.805H348.76H348.716H348.672H348.628H348.584H348.539H348.495H348.452H348.408H348.364H348.32H348.276H348.233H348.189H348.146H348.102H348.059H348.015H347.972H347.929H347.886H347.842H347.799H347.756H347.714H347.671H347.628H347.585H347.542H347.5H347.457H347.415H347.372H347.33H347.288H347.246H347.203H347.161H347.119H347.077H347.035H346.994H346.952H346.91H346.869H346.827H346.785H346.744H346.703H346.661H346.62H346.579H346.538H346.497H346.456H346.415H346.374H346.333H346.293H346.252H346.212H346.171H346.131H346.091H346.05H346.01H345.97H345.93H345.89H345.85H345.81H345.771H345.731H345.691H345.652H345.612H345.573H345.534H345.494H345.455H345.416H345.377H345.338H345.299H345.261H345.222H345.183H345.145H345.106H345.068H345.03H344.991H344.953H344.915H344.877H344.839H344.801H344.764H344.726H344.688H344.651H344.613H344.576H344.539H344.501H344.464H344.427H344.39H344.353H344.317H344.28H344.243H344.207H344.17H344.134H344.098H344.061H344.025H343.989H343.953H343.917H343.882H343.846H343.81H343.775H343.739H343.704H343.669H343.633H343.598H343.563H343.528H343.493H343.459H343.424H343.389H343.355H343.32H343.286H343.252H343.218H343.184H343.15H343.116H343.082H343.048H343.015H342.981H342.948H342.914H342.881H342.848H342.815H342.782H342.749H342.716H342.684H342.651H342.618H342.586H342.554H342.521H342.489H342.457H342.425H342.393H342.362H342.33H342.298H342.267H342.236H342.204H342.173H342.142H342.111H342.08H342.049H342.019H341.988H341.957H341.927H341.897H341.867H341.836H341.806H341.776H341.747H341.717H341.687H341.658H341.628H341.599H341.57H341.541H341.512H341.483H341.454H341.425H341.397H341.368H341.34H341.311H341.283H341.255H341.227H341.199H341.172H341.144H341.116H341.089H341.061H341.034H341.007H340.98H340.953H340.926H340.899H340.873H340.846H340.82H340.794H340.767H340.741H340.715H340.689H340.664H340.638H340.613H340.587H340.562H340.537H340.511H340.486H340.462H340.437H340.412H340.388H340.363H340.339H340.315H340.29H340.266H340.243H340.219H340.195H340.172H340.148H340.125H340.102H340.079H340.056H340.033H340.01H339.987H339.965H339.942H339.92H339.898H339.876H339.854H339.832H339.81H339.789H339.767H339.746H339.725H339.704H339.683H339.662H339.641H339.62H339.6Z" fill="white" stroke="black" stroke-width="3"/>
<path fill-rule="evenodd" clip-rule="evenodd" d="M445 41.5H430.907V38.5H445V41.5Z" fill="black"/>
<path fill-rule="evenodd" clip-rule="evenodd" d="M386 41.5H377V38.5H386V41.5Z" fill="black"/>
<path d="M387.5 28L420.345 28L432.373 40H387.5V28Z" stroke="black" stroke-width="3"/>
<path fill-rule="evenodd" clip-rule="evenodd" d="M454 41.5H445V38.5H454V41.5Z" fill="black"/>
<path fill-rule="evenodd" clip-rule="evenodd" d="M478 41.5H454V38.5H478V41.5Z" fill="black"/>
<rect x="460" y="12.5" width="3" height="26" fill="black"/>
<rect x="453" y="15.5" width="3" height="17" transform="rotate(-90 453 15.5)" fill="black"/>
</svg>
