<svg width="1108" height="209" viewBox="0 0 1108 209" fill="none" xmlns="http://www.w3.org/2000/svg">
<rect width="1108" height="208" transform="translate(0 0.5)" fill="white"/>
<path d="M13.489 124.169H4.23V88.5426H13.489V124.169ZM33.5558 124.169H24.2968V88.5426H33.5558V124.169ZM53.6226 124.169H44.3636V88.5426H53.6226V124.169ZM73.6894 124.169H64.4304V88.5426H73.6894V124.169Z" fill="#F2F3F4"/>
<path d="M93.7562 124.169H84.4972V88.5426H93.7562V124.169Z" fill="#1E93FF"/>
<path d="M113.823 124.169H104.564V88.5426H113.823V124.169Z" fill="#B841E1"/>
<path d="M133.89 124.169H124.631V88.5426H133.89V124.169Z" fill="#E40045"/>
<path d="M171.243 124.442C165.749 124.442 161.349 122.762 158.043 119.402C154.789 115.989 153.003 111.349 152.683 105.482L152.603 102.762L152.683 100.122C153.056 94.3623 154.869 89.7757 158.123 86.3623C161.429 82.949 165.776 81.2423 171.163 81.2423C177.083 81.2423 181.669 83.1357 184.923 86.9223C188.176 90.6557 189.803 95.7223 189.803 102.122V103.482C189.803 104.016 189.616 104.469 189.243 104.842C188.923 105.162 188.496 105.322 187.963 105.322H160.283V106.042C160.443 109.509 161.483 112.469 163.403 114.922C165.376 117.322 167.963 118.522 171.163 118.522C173.616 118.522 175.616 118.042 177.163 117.082C178.763 116.069 179.936 115.029 180.683 113.962C181.163 113.322 181.509 112.949 181.723 112.842C181.989 112.682 182.443 112.602 183.083 112.602H187.003C187.483 112.602 187.883 112.736 188.203 113.002C188.523 113.269 188.683 113.642 188.683 114.122C188.683 115.296 187.936 116.709 186.443 118.362C185.003 120.016 182.949 121.456 180.283 122.682C177.669 123.856 174.656 124.442 171.243 124.442ZM182.203 99.8023V99.5623C182.203 95.8823 181.189 92.8957 179.163 90.6023C177.189 88.2557 174.523 87.0823 171.163 87.0823C167.803 87.0823 165.136 88.2557 163.163 90.6023C161.243 92.8957 160.283 95.8823 160.283 99.5623V99.8023H182.203ZM198.808 123.642C198.275 123.642 197.822 123.482 197.448 123.162C197.128 122.789 196.968 122.336 196.968 121.802V83.8823C196.968 83.349 197.128 82.9223 197.448 82.6023C197.822 82.229 198.275 82.0423 198.808 82.0423H202.408C202.942 82.0423 203.368 82.229 203.688 82.6023C204.062 82.9223 204.248 83.349 204.248 83.8823V86.6823C207.022 83.0557 210.888 81.2423 215.848 81.2423C221.768 81.2423 225.955 83.6957 228.408 88.6023C229.688 86.3623 231.502 84.5757 233.848 83.2423C236.195 81.909 238.835 81.2423 241.768 81.2423C246.142 81.2423 249.715 82.7357 252.488 85.7223C255.262 88.709 256.648 93.029 256.648 98.6823V121.802C256.648 122.336 256.462 122.789 256.088 123.162C255.768 123.482 255.342 123.642 254.808 123.642H251.048C250.515 123.642 250.062 123.482 249.688 123.162C249.368 122.789 249.208 122.336 249.208 121.802V99.4023C249.208 95.2423 248.328 92.2557 246.568 90.4423C244.862 88.629 242.595 87.7223 239.768 87.7223C237.262 87.7223 235.102 88.6557 233.288 90.5223C231.475 92.3357 230.568 95.2957 230.568 99.4023V121.802C230.568 122.336 230.382 122.789 230.008 123.162C229.688 123.482 229.262 123.642 228.728 123.642H224.968C224.435 123.642 223.982 123.482 223.608 123.162C223.288 122.789 223.128 122.336 223.128 121.802V99.4023C223.128 95.2423 222.222 92.2557 220.408 90.4423C218.648 88.629 216.408 87.7223 213.688 87.7223C211.182 87.7223 209.022 88.6557 207.208 90.5223C205.395 92.3357 204.488 95.269 204.488 99.3223V121.802C204.488 122.336 204.302 122.789 203.928 123.162C203.608 123.482 203.182 123.642 202.648 123.642H198.808ZM282.302 124.442C276.809 124.442 272.409 122.762 269.102 119.402C265.849 115.989 264.062 111.349 263.742 105.482L263.662 102.762L263.742 100.122C264.115 94.3623 265.929 89.7757 269.182 86.3623C272.489 82.949 276.835 81.2423 282.222 81.2423C288.142 81.2423 292.729 83.1357 295.982 86.9223C299.235 90.6557 300.862 95.7223 300.862 102.122V103.482C300.862 104.016 300.675 104.469 300.302 104.842C299.982 105.162 299.555 105.322 299.022 105.322H271.342V106.042C271.502 109.509 272.542 112.469 274.462 114.922C276.435 117.322 279.022 118.522 282.222 118.522C284.675 118.522 286.675 118.042 288.222 117.082C289.822 116.069 290.995 115.029 291.742 113.962C292.222 113.322 292.569 112.949 292.782 112.842C293.049 112.682 293.502 112.602 294.142 112.602H298.062C298.542 112.602 298.942 112.736 299.262 113.002C299.582 113.269 299.742 113.642 299.742 114.122C299.742 115.296 298.995 116.709 297.502 118.362C296.062 120.016 294.009 121.456 291.342 122.682C288.729 123.856 285.715 124.442 282.302 124.442ZM293.262 99.8023V99.5623C293.262 95.8823 292.249 92.8957 290.222 90.6023C288.249 88.2557 285.582 87.0823 282.222 87.0823C278.862 87.0823 276.195 88.2557 274.222 90.6023C272.302 92.8957 271.342 95.8823 271.342 99.5623V99.8023H293.262ZM309.868 123.642C309.334 123.642 308.881 123.482 308.508 123.162C308.188 122.789 308.028 122.336 308.028 121.802V83.9623C308.028 83.429 308.188 82.9757 308.508 82.6023C308.881 82.229 309.334 82.0423 309.868 82.0423H313.548C314.081 82.0423 314.534 82.229 314.908 82.6023C315.281 82.9757 315.468 83.429 315.468 83.9623V87.4823C317.654 83.8557 321.388 82.0423 326.668 82.0423H329.788C330.321 82.0423 330.748 82.229 331.068 82.6023C331.441 82.9223 331.628 83.349 331.628 83.8823V87.1623C331.628 87.6957 331.441 88.1223 331.068 88.4423C330.748 88.7623 330.321 88.9223 329.788 88.9223H324.988C322.108 88.9223 319.841 89.7757 318.188 91.4823C316.534 93.1357 315.708 95.4023 315.708 98.2823V121.802C315.708 122.336 315.521 122.789 315.148 123.162C314.774 123.482 314.321 123.642 313.788 123.642H309.868ZM352.199 141.242C347.826 141.242 344.306 140.496 341.639 139.002C338.972 137.562 337.079 135.909 335.959 134.042C334.839 132.176 334.226 130.496 334.119 129.002C334.066 128.469 334.226 128.016 334.599 127.642C335.026 127.269 335.479 127.082 335.959 127.082H339.799C340.279 127.082 340.679 127.189 340.999 127.402C341.319 127.669 341.586 128.122 341.799 128.762C342.439 130.469 343.479 131.936 344.919 133.162C346.412 134.442 348.706 135.082 351.799 135.082C355.746 135.082 358.652 134.229 360.519 132.522C362.386 130.869 363.319 127.909 363.319 123.642V118.202C361.932 119.962 360.172 121.376 358.039 122.442C355.906 123.456 353.372 123.962 350.439 123.962C344.786 123.962 340.546 122.176 337.719 118.602C334.946 114.976 333.479 110.389 333.319 104.842L333.239 102.602L333.319 100.442C333.479 94.949 334.972 90.389 337.799 86.7623C340.626 83.0823 344.839 81.2423 350.439 81.2423C356.039 81.2423 360.412 83.2957 363.559 87.4023V83.9623C363.559 83.429 363.719 82.9757 364.039 82.6023C364.412 82.229 364.866 82.0423 365.399 82.0423H369.079C369.612 82.0423 370.066 82.229 370.439 82.6023C370.812 82.9757 370.999 83.429 370.999 83.9623V122.762C370.999 135.082 364.732 141.242 352.199 141.242ZM352.039 117.562C355.666 117.562 358.412 116.362 360.279 113.962C362.146 111.562 363.159 108.709 363.319 105.402C363.372 104.922 363.399 103.989 363.399 102.602C363.399 101.269 363.372 100.362 363.319 99.8823C363.159 96.5757 362.146 93.7223 360.279 91.3223C358.466 88.9223 355.719 87.7223 352.039 87.7223C348.252 87.7223 345.506 88.8957 343.799 91.2423C342.092 93.589 341.159 96.6823 340.999 100.522L340.919 102.602L340.999 104.762C341.159 108.549 342.092 111.642 343.799 114.042C345.506 116.389 348.252 117.562 352.039 117.562ZM397.133 124.442C391.64 124.442 387.24 122.762 383.933 119.402C380.68 115.989 378.893 111.349 378.573 105.482L378.493 102.762L378.573 100.122C378.947 94.3623 380.76 89.7757 384.013 86.3623C387.32 82.949 391.667 81.2423 397.053 81.2423C402.973 81.2423 407.56 83.1357 410.813 86.9223C414.067 90.6557 415.693 95.7223 415.693 102.122V103.482C415.693 104.016 415.507 104.469 415.133 104.842C414.813 105.162 414.387 105.322 413.853 105.322H386.173V106.042C386.333 109.509 387.373 112.469 389.293 114.922C391.267 117.322 393.853 118.522 397.053 118.522C399.507 118.522 401.507 118.042 403.053 117.082C404.653 116.069 405.827 115.029 406.573 113.962C407.053 113.322 407.4 112.949 407.613 112.842C407.88 112.682 408.333 112.602 408.973 112.602H412.893C413.373 112.602 413.773 112.736 414.093 113.002C414.413 113.269 414.573 113.642 414.573 114.122C414.573 115.296 413.827 116.709 412.333 118.362C410.893 120.016 408.84 121.456 406.173 122.682C403.56 123.856 400.547 124.442 397.133 124.442ZM408.093 99.8023V99.5623C408.093 95.8823 407.08 92.8957 405.053 90.6023C403.08 88.2557 400.413 87.0823 397.053 87.0823C393.693 87.0823 391.027 88.2557 389.053 90.6023C387.133 92.8957 386.173 95.8823 386.173 99.5623V99.8023H408.093ZM424.699 123.642C424.166 123.642 423.712 123.482 423.339 123.162C423.019 122.789 422.859 122.336 422.859 121.802V83.8823C422.859 83.349 423.019 82.9223 423.339 82.6023C423.712 82.229 424.166 82.0423 424.699 82.0423H428.459C428.992 82.0423 429.419 82.229 429.739 82.6023C430.112 82.9223 430.299 83.349 430.299 83.8823V87.4023C431.846 85.429 433.659 83.909 435.739 82.8423C437.872 81.7757 440.512 81.2423 443.659 81.2423C448.779 81.2423 452.752 82.8957 455.579 86.2023C458.459 89.4557 459.899 93.8023 459.899 99.2423V121.802C459.899 122.336 459.712 122.789 459.339 123.162C459.019 123.482 458.592 123.642 458.059 123.642H454.059C453.526 123.642 453.072 123.482 452.699 123.162C452.379 122.789 452.219 122.336 452.219 121.802V99.6423C452.219 95.8557 451.286 92.9223 449.419 90.8423C447.606 88.7623 444.966 87.7223 441.499 87.7223C438.139 87.7223 435.472 88.789 433.499 90.9223C431.526 93.0023 430.539 95.909 430.539 99.6423V121.802C430.539 122.336 430.352 122.789 429.979 123.162C429.659 123.482 429.232 123.642 428.699 123.642H424.699ZM485.775 124.442C480.068 124.442 475.588 122.842 472.335 119.642C469.135 116.389 467.428 111.856 467.215 106.042L467.135 102.842L467.215 99.6423C467.428 93.829 469.135 89.3223 472.335 86.1223C475.588 82.869 480.068 81.2423 485.775 81.2423C489.615 81.2423 492.868 81.9357 495.535 83.3223C498.201 84.709 500.175 86.4157 501.455 88.4423C502.788 90.469 503.508 92.4957 503.615 94.5223C503.668 95.0557 503.508 95.4823 503.135 95.8023C502.761 96.1223 502.308 96.2823 501.775 96.2823H497.935C497.401 96.2823 497.001 96.1757 496.735 95.9623C496.468 95.749 496.201 95.3223 495.935 94.6823C495.028 92.1223 493.748 90.309 492.095 89.2423C490.441 88.1223 488.361 87.5623 485.855 87.5623C482.548 87.5623 479.908 88.6023 477.935 90.6823C476.015 92.709 474.975 95.829 474.815 100.042L474.735 102.922L474.815 105.642C474.975 109.909 476.015 113.056 477.935 115.082C479.855 117.109 482.495 118.122 485.855 118.122C488.361 118.122 490.441 117.589 492.095 116.522C493.748 115.402 495.028 113.562 495.935 111.002C496.201 110.362 496.468 109.936 496.735 109.722C497.001 109.456 497.401 109.322 497.935 109.322H501.775C502.308 109.322 502.761 109.509 503.135 109.882C503.508 110.202 503.668 110.629 503.615 111.162C503.508 113.136 502.788 115.162 501.455 117.242C500.175 119.269 498.201 120.976 495.535 122.362C492.921 123.749 489.668 124.442 485.775 124.442ZM527.355 124.442C521.862 124.442 517.462 122.762 514.155 119.402C510.902 115.989 509.115 111.349 508.795 105.482L508.715 102.762L508.795 100.122C509.168 94.3623 510.982 89.7757 514.235 86.3623C517.542 82.949 521.888 81.2423 527.275 81.2423C533.195 81.2423 537.782 83.1357 541.035 86.9223C544.288 90.6557 545.915 95.7223 545.915 102.122V103.482C545.915 104.016 545.728 104.469 545.355 104.842C545.035 105.162 544.608 105.322 544.075 105.322H516.395V106.042C516.555 109.509 517.595 112.469 519.515 114.922C521.488 117.322 524.075 118.522 527.275 118.522C529.728 118.522 531.728 118.042 533.275 117.082C534.875 116.069 536.048 115.029 536.795 113.962C537.275 113.322 537.622 112.949 537.835 112.842C538.102 112.682 538.555 112.602 539.195 112.602H543.115C543.595 112.602 543.995 112.736 544.315 113.002C544.635 113.269 544.795 113.642 544.795 114.122C544.795 115.296 544.048 116.709 542.555 118.362C541.115 120.016 539.062 121.456 536.395 122.682C533.782 123.856 530.768 124.442 527.355 124.442ZM538.315 99.8023V99.5623C538.315 95.8823 537.302 92.8957 535.275 90.6023C533.302 88.2557 530.635 87.0823 527.275 87.0823C523.915 87.0823 521.248 88.2557 519.275 90.6023C517.355 92.8957 516.395 95.8823 516.395 99.5623V99.8023H538.315Z" fill="black"/>
<path d="M574.484 124.169H565.225V88.5426H574.484V124.169ZM594.551 124.169H585.292V88.5426H594.551V124.169ZM614.618 124.169H605.359V88.5426H614.618V124.169ZM634.685 124.169H625.426V88.5426H634.685V124.169ZM654.751 124.169H645.492V88.5426H654.751V124.169ZM674.818 124.169H665.559V88.5426H674.818V124.169ZM694.885 124.169H685.626V88.5426H694.885V124.169ZM714.952 124.169H705.693V88.5426H714.952V124.169ZM735.018 124.169H725.759V88.5426H735.018V124.169ZM755.085 124.169H745.826V88.5426H755.085V124.169ZM775.152 124.169H765.893V88.5426H775.152V124.169ZM795.219 124.169H785.96V88.5426H795.219V124.169ZM815.286 124.169H806.027V88.5426H815.286V124.169ZM835.352 124.169H826.093V88.5426H835.352V124.169ZM855.419 124.169H846.16V88.5426H855.419V124.169ZM875.486 124.169H866.227V88.5426H875.486V124.169ZM895.553 124.169H886.294V88.5426H895.553V124.169ZM915.62 124.169H906.361V88.5426H915.62V124.169ZM935.686 124.169H926.427V88.5426H935.686V124.169ZM955.753 124.169H946.494V88.5426H955.753V124.169ZM975.82 124.169H966.561V88.5426H975.82V124.169ZM995.887 124.169H986.628V88.5426H995.887V124.169ZM1015.95 124.169H1006.69V88.5426H1015.95V124.169ZM1036.02 124.169H1026.76V88.5426H1036.02V124.169ZM1056.09 124.169H1046.83V88.5426H1056.09V124.169ZM1076.15 124.169H1066.9V88.5426H1076.15V124.169ZM1096.22 124.169H1086.96V88.5426H1096.22V124.169Z" fill="#F2F3F4"/>
</svg>
