<svg width="139" height="28" viewBox="0 0 139 28" fill="none" xmlns="http://www.w3.org/2000/svg">
<g clip-path="url(#clip0)">
<rect width="139" height="28" fill="white"/>
<line x1="23.4752" y1="5.85364" x2="53.4749" y2="5.97659" stroke="black"/>
<path fill-rule="evenodd" clip-rule="evenodd" d="M116.368 14.6038L86.1897 14.4801L86.1938 13.4801L116.373 13.6038L116.368 14.6038Z" fill="black"/>
<line x1="23.4752" y1="22.0775" x2="53.4749" y2="22.2005" stroke="black"/>
<path d="M49.0039 0.604858C53.0744 3.71877 55.725 8.52147 55.725 14.0423C55.725 19.5631 53.0783 24.3659 49.0078 27.4799" stroke="black"/>
<path d="M60.7739 27.5848C68.2532 27.5848 75.3768 27.4041 81.4058 13.8618C75.3184 0.319443 68.2532 0.500122 60.7739 0.500122" stroke="black"/>
<path fill-rule="evenodd" clip-rule="evenodd" d="M60.7739 1H48.6992V0H60.7739V1Z" fill="black"/>
<path fill-rule="evenodd" clip-rule="evenodd" d="M60.7739 28.0848H48.6992V27.0848H60.7739V28.0848Z" fill="black"/>
<circle cx="83.887" cy="14.0424" r="1.98126" stroke="black"/>
<path d="M4.128 2.98154C4.18133 2.98154 4.208 3.00821 4.208 3.06154V3.40554C4.208 3.45888 4.18133 3.48554 4.128 3.48554H2.56C2.53867 3.48554 2.528 3.49621 2.528 3.51754V8.50154C2.528 8.55488 2.50133 8.58154 2.448 8.58154H2.04C1.98667 8.58154 1.96 8.55488 1.96 8.50154V3.51754C1.96 3.49621 1.94933 3.48554 1.928 3.48554H0.424C0.370667 3.48554 0.344 3.45888 0.344 3.40554V3.06154C0.344 3.00821 0.370667 2.98154 0.424 2.98154H4.128ZM7.73619 5.87754C7.75752 6.02688 7.76819 6.21354 7.76819 6.43754V6.69354C7.76819 6.74688 7.74152 6.77354 7.68819 6.77354H5.10419C5.08285 6.77354 5.07219 6.78421 5.07219 6.80554C5.08285 7.09888 5.09885 7.28821 5.12019 7.37354C5.17885 7.61354 5.30419 7.80288 5.49619 7.94154C5.68819 8.08021 5.93352 8.14954 6.23219 8.14954C6.45619 8.14954 6.65352 8.09888 6.82419 7.99754C6.99485 7.89621 7.12819 7.75221 7.22419 7.56554C7.25619 7.51754 7.29352 7.50688 7.33619 7.53354L7.64819 7.71754C7.69085 7.74421 7.70152 7.78154 7.68019 7.82954C7.54685 8.08554 7.34685 8.28821 7.08019 8.43754C6.81352 8.58154 6.50685 8.65354 6.16019 8.65354C5.78152 8.64821 5.46419 8.55754 5.20819 8.38154C4.95219 8.20554 4.76819 7.96021 4.65619 7.64554C4.56019 7.38954 4.51219 7.02154 4.51219 6.54154C4.51219 6.31754 4.51485 6.13621 4.52019 5.99754C4.53085 5.85354 4.55219 5.72554 4.58419 5.61354C4.67485 5.26688 4.85619 4.98954 5.12819 4.78154C5.40552 4.57354 5.73885 4.46954 6.12819 4.46954C6.61352 4.46954 6.98685 4.59221 7.24819 4.83754C7.50952 5.08288 7.67219 5.42954 7.73619 5.87754ZM6.12819 4.96554C5.86685 4.96554 5.64819 5.03488 5.47219 5.17354C5.30152 5.30688 5.18952 5.48821 5.13619 5.71754C5.10419 5.82954 5.08285 6.01088 5.07219 6.26154C5.07219 6.28288 5.08285 6.29354 5.10419 6.29354H7.17619C7.19752 6.29354 7.20819 6.28288 7.20819 6.26154C7.19752 6.02154 7.18152 5.85088 7.16019 5.74954C7.10152 5.50954 6.98152 5.32021 6.80019 5.18154C6.62419 5.03754 6.40019 4.96554 6.12819 4.96554ZM10.6591 4.92554C10.6591 4.97888 10.6325 5.00554 10.5791 5.00554H9.67513C9.65379 5.00554 9.64313 5.01621 9.64313 5.03754V7.39754C9.64313 7.65354 9.69913 7.83488 9.81113 7.94154C9.92846 8.04288 10.1098 8.09354 10.3551 8.09354H10.5551C10.6085 8.09354 10.6351 8.12021 10.6351 8.17354V8.50154C10.6351 8.55488 10.6085 8.58154 10.5551 8.58154C10.4911 8.58688 10.3925 8.58954 10.2591 8.58954C9.87513 8.58954 9.58446 8.51754 9.38713 8.37354C9.18979 8.22954 9.09113 7.96288 9.09113 7.57354V5.03754C9.09113 5.01621 9.08046 5.00554 9.05913 5.00554H8.57113C8.51779 5.00554 8.49113 4.97888 8.49113 4.92554V4.61354C8.49113 4.56021 8.51779 4.53354 8.57113 4.53354H9.05913C9.08046 4.53354 9.09113 4.52288 9.09113 4.50154V3.57354C9.09113 3.52021 9.11779 3.49354 9.17113 3.49354H9.56313C9.61646 3.49354 9.64313 3.52021 9.64313 3.57354V4.50154C9.64313 4.52288 9.65379 4.53354 9.67513 4.53354H10.5791C10.6325 4.53354 10.6591 4.56021 10.6591 4.61354V4.92554ZM15.1332 8.58154C15.0852 8.58154 15.0532 8.56288 15.0372 8.52554L13.8612 6.04554C13.8559 6.02954 13.8452 6.02154 13.8292 6.02154H12.4692C12.4479 6.02154 12.4372 6.03221 12.4372 6.05354V8.50154C12.4372 8.55488 12.4105 8.58154 12.3572 8.58154H11.9492C11.8959 8.58154 11.8692 8.55488 11.8692 8.50154V3.06154C11.8692 3.00821 11.8959 2.98154 11.9492 2.98154H14.0212C14.4799 2.98154 14.8505 3.12554 15.1332 3.41354C15.4159 3.69621 15.5572 4.06688 15.5572 4.52554C15.5572 4.89888 15.4559 5.21621 15.2532 5.47754C15.0505 5.73888 14.7759 5.90688 14.4292 5.98154C14.4079 5.99221 14.4025 6.00554 14.4132 6.02154L15.6132 8.48554C15.6185 8.49621 15.6212 8.50954 15.6212 8.52554C15.6212 8.56288 15.5999 8.58154 15.5572 8.58154H15.1332ZM12.4692 3.47754C12.4479 3.47754 12.4372 3.48821 12.4372 3.50954V5.53354C12.4372 5.55488 12.4479 5.56554 12.4692 5.56554H13.9572C14.2665 5.56554 14.5172 5.46954 14.7092 5.27754C14.9012 5.08554 14.9972 4.83488 14.9972 4.52554C14.9972 4.21621 14.9012 3.96554 14.7092 3.77354C14.5172 3.57621 14.2665 3.47754 13.9572 3.47754H12.4692Z" fill="black"/>
<path d="M127.793 16.5996C127.745 16.5996 127.713 16.5809 127.697 16.5436L126.521 14.0636C126.516 14.0476 126.505 14.0396 126.489 14.0396H125.129C125.108 14.0396 125.097 14.0503 125.097 14.0716V16.5196C125.097 16.5729 125.07 16.5996 125.017 16.5996H124.609C124.556 16.5996 124.529 16.5729 124.529 16.5196V11.0796C124.529 11.0263 124.556 10.9996 124.609 10.9996H126.681C127.14 10.9996 127.51 11.1436 127.793 11.4316C128.076 11.7143 128.217 12.0849 128.217 12.5436C128.217 12.9169 128.116 13.2343 127.913 13.4956C127.71 13.7569 127.436 13.9249 127.089 13.9996C127.068 14.0103 127.062 14.0236 127.073 14.0396L128.273 16.5036C128.278 16.5143 128.281 16.5276 128.281 16.5436C128.281 16.5809 128.26 16.5996 128.217 16.5996H127.793ZM125.129 11.4956C125.108 11.4956 125.097 11.5063 125.097 11.5276V13.5516C125.097 13.5729 125.108 13.5836 125.129 13.5836H126.617C126.926 13.5836 127.177 13.4876 127.369 13.2956C127.561 13.1036 127.657 12.8529 127.657 12.5436C127.657 12.2343 127.561 11.9836 127.369 11.7916C127.177 11.5943 126.926 11.4956 126.617 11.4956H125.129ZM133.043 11.4156C133.043 11.4689 133.017 11.4956 132.963 11.4956H130.027C130.006 11.4956 129.995 11.5063 129.995 11.5276V13.5036C129.995 13.5249 130.006 13.5356 130.027 13.5356H132.083C132.137 13.5356 132.163 13.5623 132.163 13.6156V13.9516C132.163 14.0049 132.137 14.0316 132.083 14.0316H130.027C130.006 14.0316 129.995 14.0423 129.995 14.0636V16.5196C129.995 16.5729 129.969 16.5996 129.915 16.5996H129.507C129.454 16.5996 129.427 16.5729 129.427 16.5196V11.0796C129.427 11.0263 129.454 10.9996 129.507 10.9996H132.963C133.017 10.9996 133.043 11.0263 133.043 11.0796V11.4156ZM136.102 10.9916C136.572 10.9916 136.948 11.1356 137.23 11.4236C137.518 11.7116 137.662 12.0903 137.662 12.5596C137.662 13.0236 137.516 13.3969 137.222 13.6796C136.934 13.9623 136.553 14.1036 136.078 14.1036H134.518C134.497 14.1036 134.486 14.1143 134.486 14.1356V16.5196C134.486 16.5729 134.46 16.5996 134.406 16.5996H133.998C133.945 16.5996 133.918 16.5729 133.918 16.5196V11.0716C133.918 11.0183 133.945 10.9916 133.998 10.9916H136.102ZM136.038 13.6316C136.353 13.6316 136.609 13.5356 136.806 13.3436C137.004 13.1463 137.102 12.8876 137.102 12.5676C137.102 12.2423 137.004 11.9809 136.806 11.7836C136.609 11.5863 136.353 11.4876 136.038 11.4876H134.518C134.497 11.4876 134.486 11.4983 134.486 11.5196V13.5996C134.486 13.6209 134.497 13.6316 134.518 13.6316H136.038Z" fill="black"/>
<path d="M0.832 24.8539C0.778667 24.8539 0.752 24.8272 0.752 24.7739V19.3339C0.752 19.2805 0.778667 19.2539 0.832 19.2539H1.24C1.29333 19.2539 1.32 19.2805 1.32 19.3339V24.3259C1.32 24.3472 1.33067 24.3579 1.352 24.3579H4.176C4.22933 24.3579 4.256 24.3845 4.256 24.4379V24.7739C4.256 24.8272 4.22933 24.8539 4.176 24.8539H0.832ZM6.58688 20.7419C7.06688 20.7419 7.43754 20.8645 7.69888 21.1099C7.96021 21.3552 8.09088 21.6805 8.09088 22.0859V24.7739C8.09088 24.8272 8.06421 24.8539 8.01088 24.8539H7.60288C7.54954 24.8539 7.52288 24.8272 7.52288 24.7739V24.4459C7.52288 24.4352 7.51754 24.4272 7.50688 24.4219C7.50154 24.4165 7.49354 24.4192 7.48288 24.4299C7.34954 24.5899 7.17621 24.7125 6.96288 24.7979C6.74954 24.8779 6.51221 24.9179 6.25088 24.9179C5.87221 24.9179 5.55488 24.8219 5.29888 24.6299C5.04288 24.4379 4.91488 24.1445 4.91488 23.7499C4.91488 23.3499 5.05888 23.0352 5.34688 22.8059C5.64021 22.5712 6.04554 22.4539 6.56288 22.4539H7.49088C7.51221 22.4539 7.52288 22.4432 7.52288 22.4219V22.1179C7.52288 21.8459 7.44554 21.6325 7.29088 21.4779C7.14154 21.3179 6.90688 21.2379 6.58688 21.2379C6.33088 21.2379 6.12288 21.2885 5.96288 21.3899C5.80288 21.4859 5.70421 21.6219 5.66688 21.7979C5.65088 21.8512 5.61888 21.8752 5.57088 21.8699L5.13888 21.8139C5.08021 21.8032 5.05621 21.7819 5.06688 21.7499C5.10954 21.4512 5.26954 21.2085 5.54688 21.0219C5.82421 20.8352 6.17088 20.7419 6.58688 20.7419ZM6.36288 24.4299C6.67754 24.4299 6.94954 24.3525 7.17888 24.1979C7.40821 24.0379 7.52288 23.8245 7.52288 23.5579V22.9339C7.52288 22.9125 7.51221 22.9019 7.49088 22.9019H6.65088C6.29888 22.9019 6.01621 22.9739 5.80288 23.1179C5.58954 23.2619 5.48288 23.4619 5.48288 23.7179C5.48288 23.9525 5.56288 24.1312 5.72287 24.2539C5.88821 24.3712 6.10154 24.4299 6.36288 24.4299ZM10.8008 24.9179C10.4168 24.9179 10.0861 24.8192 9.80881 24.6219C9.53681 24.4192 9.35015 24.1472 9.24881 23.8059C9.17948 23.5712 9.14481 23.2405 9.14481 22.8139C9.14481 22.4299 9.17948 22.1045 9.24881 21.8379C9.34481 21.5072 9.53148 21.2432 9.80881 21.0459C10.0861 20.8432 10.4168 20.7419 10.8008 20.7419C11.1901 20.7419 11.5261 20.8405 11.8088 21.0379C12.0968 21.2352 12.2835 21.4805 12.3688 21.7739C12.3955 21.8699 12.4115 21.9499 12.4168 22.0139V22.0299C12.4168 22.0672 12.3928 22.0912 12.3448 22.1019L11.9448 22.1579H11.9288C11.8915 22.1579 11.8675 22.1339 11.8568 22.0859L11.8328 21.9659C11.7848 21.7632 11.6675 21.5925 11.4808 21.4539C11.2941 21.3099 11.0675 21.2379 10.8008 21.2379C10.5341 21.2379 10.3101 21.3099 10.1288 21.4539C9.95281 21.5925 9.83815 21.7792 9.78481 22.0139C9.73681 22.2165 9.71281 22.4859 9.71281 22.8219C9.71281 23.1739 9.73681 23.4459 9.78481 23.6379C9.83815 23.8779 9.95281 24.0699 10.1288 24.2139C10.3101 24.3525 10.5341 24.4219 10.8008 24.4219C11.0621 24.4219 11.2861 24.3552 11.4728 24.2219C11.6648 24.0832 11.7848 23.9072 11.8328 23.6939V23.6619L11.8408 23.6299C11.8461 23.5765 11.8781 23.5552 11.9368 23.5659L12.3288 23.6299C12.3821 23.6405 12.4061 23.6699 12.4008 23.7179L12.3688 23.8779C12.2888 24.1872 12.1048 24.4379 11.8168 24.6299C11.5288 24.8219 11.1901 24.9179 10.8008 24.9179ZM13.6211 24.8539C13.5677 24.8539 13.5411 24.8272 13.5411 24.7739V19.3339C13.5411 19.2805 13.5677 19.2539 13.6211 19.2539H14.0291C14.0824 19.2539 14.1091 19.2805 14.1091 19.3339V24.7739C14.1091 24.8272 14.0824 24.8539 14.0291 24.8539H13.6211Z" fill="black"/>
</g>
<defs>
<clipPath id="clip0">
<rect width="139" height="28" fill="white"/>
</clipPath>
</defs>
</svg>
